<?xml version="1.0" standalone="no"?>
<!DOCTYPE svg PUBLIC "-//W3C//DTD SVG 20010904//EN"
 "http://www.w3.org/TR/2001/REC-SVG-20010904/DTD/svg10.dtd">
<svg version="1.0" xmlns="http://www.w3.org/2000/svg"
 width="5333.000000pt" height="5333.000000pt" viewBox="0 0 5333.000000 5333.000000"
 preserveAspectRatio="xMidYMid meet">

<g transform="translate(0.000000,5333.000000) scale(0.100000,-0.100000)"
fill="#000000" stroke="none">
<path d="M6557 53319 c-1398 -72 -2764 -585 -3882 -1458 -412 -321 -885 -794
-1206 -1206 -478 -613 -852 -1303 -1100 -2032 -208 -613 -322 -1210 -359
-1873 -14 -257 -14 -39913 0 -40170 75 -1357 515 -2604 1308 -3704 353 -491
872 -1028 1357 -1407 814 -635 1761 -1083 2758 -1303 310 -69 564 -108 927
-143 177 -17 1043 -18 20305 -18 19262 0 20128 1 20305 18 363 35 617 74 927
143 997 220 1944 668 2758 1303 412 321 885 794 1206 1206 478 613 852 1303
1100 2032 208 613 322 1210 359 1873 14 257 14 39913 0 40170 -86 1553 -650
2963 -1664 4155 -153 180 -571 598 -751 751 -786 669 -1655 1136 -2630 1414
-401 114 -787 184 -1295 237 -155 16 -1367 17 -20220 19 -11030 0 -20121 -2
-20203 -7z m29017 -15191 c-24 -40 -870 -1156 -3398 -4488 l-2827 -3725 -229
-3 -230 -2 687 917 c3809 5093 4745 6345 4742 6347 -3 2 -4597 -1812 -7256
-2865 l-243 -96 -1122 1420 c-639 809 -1124 1414 -1126 1406 -21 -65 -1662
-4851 -1666 -4858 -4 -5 -21 -13 -39 -17 -19 -4 -640 -441 -1604 -1130 l-1572
-1124 -412 0 -412 0 1829 1266 c1006 696 1834 1271 1841 1277 7 7 433 1240
947 2741 514 1501 938 2731 941 2734 6 6 -204 271 1255 -1578 684 -866 1252
-1584 1264 -1596 l21 -21 4300 1703 c2365 936 4304 1702 4308 1703 5 1 5 -5 1
-11z m13495 -10254 c402 -953 731 -1736 731 -1740 0 -5 -31 -28 -69 -51 l-69
-41 -385 911 c-212 502 -515 1219 -673 1594 -159 376 -291 679 -295 675 -4 -4
-307 -719 -674 -1589 -368 -871 -673 -1583 -679 -1583 -6 0 -39 18 -74 40
l-62 41 14 32 c887 2100 1461 3458 1468 3477 l10 25 12 -30 c7 -16 342 -809
745 -1761z m-42609 1571 l0 -84 -817 -4 -818 -3 -97 -27 c-526 -146 -857 -485
-978 -1002 -51 -221 -70 -587 -41 -820 59 -473 252 -822 577 -1038 167 -111
319 -175 524 -219 90 -20 134 -21 803 -25 l707 -5 0 766 0 766 -690 0 -690 0
0 85 0 85 770 0 770 0 0 -930 0 -931 -827 4 c-750 3 -835 5 -903 21 -189 44
-376 123 -527 222 -369 240 -579 577 -665 1069 -25 144 -35 513 -19 680 42
430 182 761 431 1019 196 202 412 329 687 402 189 51 206 52 1031 53 l772 1 0
-85z m3120 58 c202 -59 344 -160 450 -320 96 -145 140 -322 140 -560 0 -408
-154 -690 -453 -828 -150 -69 -142 -68 -674 -72 -266 -2 -483 -7 -483 -11 0
-4 350 -339 778 -744 427 -405 792 -752 811 -772 l34 -35 -47 -66 -48 -66
-176 169 c-97 93 -498 473 -890 845 l-714 677 -364 0 -364 0 0 80 0 80 374 0
c337 0 374 2 380 16 6 15 8 15 25 0 17 -16 65 -17 577 -14 556 3 559 3 629 27
222 74 353 211 409 426 29 111 40 273 27 399 -28 277 -139 460 -335 556 -148
72 -114 70 -1261 70 l-1025 0 0 -1640 0 -1640 -80 0 -80 0 0 1725 0 1726 1143
-3 c1141 -3 1142 -3 1217 -25z m7210 0 c161 -47 265 -109 373 -222 128 -134
195 -298 218 -539 21 -215 -14 -432 -96 -597 -76 -153 -192 -269 -340 -340
-175 -85 -89 -79 -1183 -82 l-973 -4 3 78 3 78 955 5 955 5 70 24 c228 77 353
210 417 446 18 67 21 108 22 260 0 154 -3 193 -22 269 -59 235 -200 384 -427
452 -56 17 -134 19 -1117 21 l-1058 4 0 -1641 0 -1640 -80 0 -80 0 0 1725 0
1726 1143 -3 c1141 -3 1142 -3 1217 -25z m2818 12 c352 -53 632 -191 862 -424
172 -174 273 -339 349 -576 73 -224 101 -422 101 -720 0 -587 -140 -980 -464
-1300 -66 -66 -157 -144 -201 -173 -223 -148 -518 -246 -775 -259 -137 -6
-275 17 -460 77 -367 119 -682 379 -848 699 -143 275 -205 563 -205 956 0 302
31 511 110 740 184 530 623 889 1198 980 111 18 218 18 333 0z m5850 -67 l-3
-83 -1387 -3 -1388 -2 0 -1570 0 -1570 1390 0 1390 0 0 -80 0 -80 -1470 0
-1470 0 0 1735 0 1735 1470 0 1471 0 -3 -82z m3350 0 l-3 -83 -1130 -5 c-1262
-6 -1161 0 -1320 -79 -226 -112 -343 -378 -321 -732 20 -338 180 -562 461
-645 54 -16 134 -18 860 -24 l800 -6 88 -27 c293 -91 471 -272 543 -555 46
-180 48 -455 4 -627 -66 -258 -242 -462 -472 -549 -152 -57 -121 -56 -1328
-56 l-1110 0 0 80 0 80 1098 0 c1052 0 1100 1 1178 20 111 26 157 45 237 98
194 127 292 408 259 741 -33 335 -187 538 -467 618 -53 15 -147 18 -860 23
-870 6 -827 4 -977 64 -181 73 -334 224 -405 399 -84 206 -102 513 -43 742 81
318 323 540 647 595 26 4 547 8 1156 9 l1108 1 -3 -82z m3332 -3 l0 -85 -685
0 -685 0 0 -1640 0 -1640 -85 0 -85 0 0 1640 0 1640 -690 0 -690 0 0 85 0 85
1460 0 1460 0 0 -85z m2945 57 c316 -91 505 -305 570 -646 22 -110 21 -354 0
-465 -64 -332 -253 -550 -557 -643 -70 -21 -90 -22 -556 -26 -266 -1 -482 -7
-480 -12 2 -4 365 -352 808 -771 443 -420 807 -767 808 -771 5 -11 -69 -119
-85 -125 -6 -3 -410 374 -897 836 l-886 841 -365 0 -366 0 3 78 3 77 370 3
c316 2 372 4 381 17 10 14 13 14 24 0 11 -13 82 -15 542 -15 603 0 622 2 774
75 72 35 103 57 152 109 132 141 194 361 178 627 -19 309 -134 504 -356 608
-133 62 -110 61 -1236 61 l-1024 0 0 -1640 0 -1640 -85 0 -85 0 0 1725 0 1726
1143 -3 1142 -3 80 -23z m4123 -54 l-3 -83 -1387 -3 -1388 -2 0 -1570 0 -1570
1390 0 1390 0 0 -80 0 -80 -1470 0 -1470 0 0 1735 0 1735 1470 0 1471 0 -3
-82z m-28275 -1060 l3 -1123 26 -106 c35 -141 97 -296 160 -403 60 -101 173
-226 267 -298 322 -244 904 -308 1306 -144 348 142 603 488 730 991 64 251 65
278 65 1291 l0 914 86 0 85 0 -4 -942 c-3 -905 -4 -948 -25 -1075 -119 -737
-471 -1228 -988 -1378 -141 -41 -253 -55 -439 -55 -406 1 -705 96 -957 304
-211 175 -390 487 -452 789 -33 156 -36 270 -36 1310 l0 1047 85 0 84 0 4
-1122z m29017 -523 l0 -1645 1390 0 1390 0 0 -80 0 -80 -1475 0 -1475 0 0
1725 0 1725 85 0 85 0 0 -1645z m3520 0 l0 -1645 1390 0 1390 0 0 -80 0 -80
-1475 0 -1475 0 0 1725 0 1725 85 0 85 0 0 -1645z m-18012 -67 l3 -78 -1291 0
-1290 0 0 73 c0 41 3 77 7 80 3 4 583 6 1287 5 l1281 -3 3 -77z m13750 0 l3
-78 -1291 0 -1290 0 0 73 c0 41 3 77 7 80 3 4 583 6 1287 5 l1281 -3 3 -77z
m9862 -828 l0 -80 -760 0 -760 0 0 80 0 80 760 0 760 0 0 -80z m-28405 -1307
c-3 -16 -517 -1823 -1141 -4016 -625 -2194 -1134 -3990 -1132 -3991 2 -2 1323
1456 2937 3240 l2934 3242 101 -73 c55 -41 2419 -1761 5251 -3823 2833 -2063
5151 -3749 5153 -3747 1 1 -964 2040 -2144 4531 -1181 2491 -2157 4553 -2170
4582 l-24 52 238 0 239 0 2487 -5251 c1368 -2888 2486 -5252 2484 -5254 -2 -1
-2601 1889 -5777 4201 -3176 2312 -5778 4201 -5783 4198 -5 -3 -1546 -1704
-3425 -3780 -1878 -2076 -3417 -3773 -3420 -3771 -3 3 2729 9607 2752 9675 3
9 58 12 226 12 l221 0 -7 -27z"/>
<path d="M19370 29363 c-470 -55 -869 -319 -1060 -702 -175 -348 -227 -867
-135 -1327 92 -458 346 -791 746 -978 310 -145 589 -162 910 -56 528 174 832
574 910 1195 16 128 16 472 0 595 -37 289 -121 526 -253 717 -186 268 -493
462 -843 532 -108 21 -219 31 -275 24z"/>
</g>
</svg>
